<svg width="88" height="31" viewBox="0 0 88 31" fill="none" xmlns="http://www.w3.org/2000/svg">
<path fill-rule="evenodd" clip-rule="evenodd" d="M82.4669 12.156C82.4811 11.8345 82.5894 11.5243 82.7784 11.2638C82.9674 11.0033 83.2287 10.8041 83.5299 10.6908C83.8311 10.5775 84.1589 10.5552 84.4727 10.6266C84.7865 10.6979 85.0724 10.8599 85.295 11.0923C85.5175 11.3247 85.667 11.6174 85.7247 11.9339C85.7824 12.2505 85.7459 12.5771 85.6197 12.8731C85.4935 13.1691 85.2831 13.4215 85.0147 13.5991C84.7463 13.7766 84.4317 13.8714 84.1099 13.8717C83.8885 13.8699 83.6696 13.8237 83.4663 13.736C83.263 13.6482 83.0794 13.5206 82.9262 13.3606C82.7731 13.2007 82.6535 13.0117 82.5746 12.8048C82.4957 12.5979 82.4591 12.3773 82.4669 12.156ZM84.1099 13.4985C84.278 13.4935 84.4434 13.4554 84.5967 13.3864C84.75 13.3174 84.8883 13.2189 85.0035 13.0965C85.1187 12.9741 85.2087 12.8301 85.2683 12.6729C85.3278 12.5157 85.3558 12.3483 85.3507 12.1802C85.3573 11.8419 85.2311 11.5144 84.9992 11.268C84.7673 11.0215 84.448 10.8758 84.1099 10.8619C83.7603 10.8619 83.4249 11.0008 83.1777 11.248C82.9305 11.4952 82.7916 11.8306 82.7916 12.1802C82.7916 12.5298 82.9305 12.8652 83.1777 13.1124C83.4249 13.3596 83.7603 13.4985 84.1099 13.4985ZM83.8821 12.9266H83.538V11.4096H84.1584C84.2872 11.396 84.4172 11.4214 84.5316 11.4823C84.5905 11.524 84.6375 11.5804 84.6681 11.6458C84.6987 11.7112 84.7118 11.7835 84.706 11.8555C84.7088 11.9363 84.686 12.016 84.6407 12.083C84.5954 12.1501 84.5301 12.2011 84.454 12.2287L84.7303 12.9024H84.3571L84.1341 12.3062H83.8821V12.9266ZM83.8821 12.0784H84.0857C84.1528 12.0836 84.2204 12.0753 84.2844 12.0542C84.3104 12.0337 84.3307 12.007 84.3434 11.9764C84.3562 11.9459 84.3609 11.9126 84.3571 11.8797C84.3577 11.8514 84.3514 11.8233 84.3387 11.798C84.326 11.7727 84.3074 11.7508 84.2844 11.7343C84.2209 11.7108 84.1532 11.7009 84.0857 11.7052H83.9112L83.8821 12.0784Z" fill="#FD0C15"/>
<path fill-rule="evenodd" clip-rule="evenodd" d="M58.9748 0.693512L58.5241 3.62578C57.7798 3.17636 56.9311 2.92909 56.062 2.90846C54.0263 2.90846 52.582 4.99255 52.582 7.9539C52.582 9.99436 53.5514 11.2351 55.1459 11.2351C55.9691 11.1918 56.77 10.9525 57.482 10.5372L56.9974 13.6197C56.2155 13.8793 55.3978 14.0151 54.574 14.022C51.6127 14.022 49.7758 11.7828 49.7758 8.20592C49.7758 3.38344 52.3106 0.000434966 55.965 0.000434966C56.3835 -0.00527515 56.8008 0.0452584 57.2058 0.150682L58.3496 0.451176L58.9748 0.698363V0.693512Z" fill="#FD0C15"/>
<path fill-rule="evenodd" clip-rule="evenodd" d="M49.8485 2.71456C49.7604 2.68919 49.6685 2.67935 49.5771 2.68548C48.6804 2.68548 48.157 3.17016 47.3136 4.47877L47.5608 2.8115H45.0744L43.3829 13.7748H46.1456C47.1391 7.06207 47.3863 5.91823 48.7046 5.91823H48.9034C49.0839 4.81083 49.4354 3.73821 49.9454 2.73879L49.8485 2.71456Z" fill="#FD0C15"/>
<path fill-rule="evenodd" clip-rule="evenodd" d="M33.4133 13.6197C32.7846 13.8537 32.121 13.9799 31.4503 13.9929C30.0593 13.9929 29.2887 13.1496 29.2887 11.5695C29.2904 11.2371 29.3147 10.9051 29.3614 10.576L29.5359 9.50486L29.6619 8.63729L30.8542 1.14911H33.5877L33.263 2.76791H34.6831L34.2857 5.42877H32.8947L32.1725 10.0041C32.1483 10.2028 32.124 10.3482 32.124 10.45C32.124 11.0219 32.4197 11.2691 33.0643 11.2691C33.3169 11.2814 33.5696 11.2485 33.8107 11.1721L33.4133 13.5955V13.6197Z" fill="#FD0C15"/>
<path fill-rule="evenodd" clip-rule="evenodd" d="M22.576 6.26241C22.576 7.65341 23.2206 8.59852 24.6649 9.32068C25.7555 9.86836 25.9542 10.0428 25.9542 10.5372C25.9542 11.2109 25.4695 11.5356 24.3887 11.5356C23.5473 11.5371 22.7128 11.3844 21.9265 11.0849L21.5533 13.6197L21.6794 13.6488L22.164 13.7457C22.3385 13.77 22.5615 13.8184 22.8813 13.8475C23.5308 13.896 24.0542 13.9445 24.3984 13.9445C27.2822 13.9445 28.6247 12.7764 28.6247 10.29C28.6247 8.79724 28.0819 7.90544 26.686 7.23175C25.5422 6.68407 25.421 6.56289 25.421 6.03945C25.421 5.4433 25.8669 5.14282 26.7636 5.14282C27.4209 5.15952 28.0765 5.21779 28.7265 5.31729L29.1239 2.78247C28.3226 2.64968 27.5127 2.57516 26.7006 2.55951C23.5938 2.55951 22.5275 4.22194 22.5518 6.26241H22.576Z" fill="#FD0C15"/>
<path fill-rule="evenodd" clip-rule="evenodd" d="M80.8771 13.7457H78.2648L78.3908 12.6794C78.0888 13.0619 77.7035 13.3703 77.2642 13.5811C76.8249 13.792 76.3432 13.8997 75.8559 13.896C73.8397 13.896 72.5214 12.0784 72.5214 9.3449C72.5214 5.69048 74.5619 2.60797 76.9998 2.60797C78.066 2.60797 78.8609 3.09263 79.6315 4.10075L80.2277 0.24762H82.9418L80.8771 13.7457ZM76.8253 11.1867C78.1145 11.1867 79.0111 9.66963 79.0111 7.47891C79.0111 6.0879 78.4877 5.31728 77.5571 5.31728C76.3164 5.31728 75.4197 6.85853 75.4197 8.99593C75.4197 10.4499 75.9044 11.1867 76.8398 11.1867H76.8253Z" fill="#FD0C15"/>
<path fill-rule="evenodd" clip-rule="evenodd" d="M42.118 13.5227C41.202 13.8186 40.2452 13.9691 39.2826 13.9686C36.2243 13.9686 34.6055 12.2771 34.6055 9.04923C34.6055 5.26879 36.646 2.50616 39.4086 2.50616C41.6672 2.50616 43.1115 4.07649 43.1115 6.50954C43.0981 7.42294 42.9811 8.33188 42.7626 9.21887H37.3197C37.2985 9.33394 37.2887 9.45083 37.2906 9.56783C37.2906 10.8619 38.1146 11.5065 39.714 11.5065C40.7077 11.498 41.6862 11.2608 42.5735 10.8134L42.1519 13.5227H42.118ZM40.5767 6.98452C40.5868 6.80211 40.5868 6.61926 40.5767 6.43684C40.5767 5.5402 40.092 5.02161 39.2826 5.02161C38.4732 5.02161 37.7898 5.71469 37.5427 6.98452H40.5767Z" fill="#FD0C15"/>
<path fill-rule="evenodd" clip-rule="evenodd" d="M11.5352 13.7457H8.80163L10.3671 3.37862L6.83871 13.7457H4.97273L4.74978 3.45132L3.08251 13.7457H0.523445L2.66085 0.267029H6.61092L6.7127 8.62277L9.39778 0.267029H13.6726L11.5352 13.7457Z" fill="#FD0C15"/>
<path fill-rule="evenodd" clip-rule="evenodd" d="M18.6211 8.87471C18.3254 8.87471 18.1994 8.82141 18.0007 8.82141C16.4352 8.82141 15.6646 9.39332 15.6646 10.4887C15.6482 10.629 15.6617 10.7713 15.7041 10.9061C15.7465 11.0409 15.8169 11.1652 15.9107 11.2709C16.0045 11.3766 16.1196 11.4613 16.2484 11.5195C16.3772 11.5776 16.5168 11.6079 16.6582 11.6083C17.7535 11.6083 18.5726 10.4887 18.6211 8.87471ZM20.6131 13.7457H18.3254L18.3739 12.6018C18.039 13.0483 17.597 13.4031 17.0888 13.6335C16.5805 13.8639 16.0223 13.9625 15.4659 13.9201C13.9731 13.9201 12.9553 12.7036 12.9553 10.9346C12.9553 8.24949 14.7437 6.70823 17.802 6.70823C18.1764 6.71244 18.5502 6.73833 18.9216 6.78578C18.9789 6.54908 19.0114 6.30706 19.0185 6.06363C19.0185 5.34146 18.5338 5.07004 17.2543 5.07004C16.4801 5.06731 15.7095 5.1767 14.9667 5.39478L14.6177 5.51594L14.3705 5.59349L14.7437 3.13135C15.7992 2.7609 16.9066 2.55971 18.0249 2.53522C20.3853 2.53522 21.6309 3.64995 21.6309 5.73889C21.6111 6.47365 21.5366 7.20592 21.4079 7.92961L20.8409 11.8312L20.7391 12.5291L20.6664 13.0768L20.6179 13.4743L20.5937 13.7457H20.6131Z" fill="#FD0C15"/>
<path fill-rule="evenodd" clip-rule="evenodd" d="M63.7198 8.87474C63.4484 8.87474 63.2981 8.82143 63.0994 8.82143C61.5339 8.82143 60.739 9.39335 60.739 10.4887C60.7227 10.6291 60.7361 10.7713 60.7785 10.9061C60.8209 11.0409 60.8913 11.1653 60.9852 11.271C61.079 11.3767 61.194 11.4614 61.3228 11.5195C61.4517 11.5776 61.5913 11.6079 61.7326 11.6083C62.8522 11.6083 63.6713 10.4887 63.7198 8.87474ZM65.7118 13.7457H63.4241L63.4726 12.6019C63.1403 13.045 62.7023 13.3979 62.1985 13.6282C61.6948 13.8584 61.1413 13.9588 60.5888 13.9202C59.096 13.9202 58.0782 12.7036 58.0782 10.9346C58.0782 8.24951 59.8666 6.70826 62.9007 6.70826C63.275 6.71322 63.6488 6.73911 64.0203 6.78581C64.0776 6.54911 64.1101 6.30709 64.1172 6.06365C64.1172 5.34149 63.6325 5.07007 62.353 5.07007C61.5788 5.06768 60.8083 5.17706 60.0653 5.3948L59.6679 5.49174L59.4207 5.56444L59.7939 3.10715C60.8486 2.73314 61.9564 2.53025 63.0752 2.50616C65.4355 2.50616 66.6811 3.62575 66.6811 5.71469C66.6613 6.44945 66.5868 7.18171 66.4582 7.9054L65.8863 11.7828L65.8087 12.4759L65.736 13.0235L65.6875 13.3967L65.7118 13.7457Z" fill="#FD0C15"/>
<path fill-rule="evenodd" clip-rule="evenodd" d="M73.3938 2.71455C73.304 2.6892 73.2106 2.67937 73.1175 2.68547C72.2257 2.68547 71.7023 3.17015 70.859 4.47876L71.1062 2.81149H68.6198L66.9283 13.7748H69.6861C70.6845 7.06206 70.9317 5.91822 72.25 5.91822H72.4487C72.6405 4.8136 72.9915 3.74263 73.4907 2.73878L73.3938 2.71455Z" fill="#FD0C15"/>
<path fill-rule="evenodd" clip-rule="evenodd" d="M61.8586 24.4133C61.8586 26.8997 61.088 28.3634 59.8666 28.3634C58.9748 28.3876 58.4514 27.3941 58.4514 25.9401C58.4514 24.2001 59.2462 22.2081 60.487 22.2081C61.5096 22.2081 61.8586 23.2792 61.8586 24.423V24.4133ZM64.5679 24.4376C64.5679 21.6749 63.2012 19.5133 60.6372 19.5133C57.6807 19.5133 55.7663 22.1257 55.7663 25.9788C55.7663 28.7366 56.9101 31 59.6921 31C62.4742 31 64.5679 29.0129 64.5679 24.4376Z" fill="#F3AE12"/>
<path fill-rule="evenodd" clip-rule="evenodd" d="M56.6339 17.5988L56.2122 20.5311C55.53 20.0865 54.7385 19.8383 53.9246 19.8138C52.0101 19.8138 50.6676 21.9027 50.6676 24.8592C50.6676 26.8997 51.5642 28.1404 53.057 28.1404C53.8376 28.0977 54.5939 27.8539 55.2526 27.4328L54.8067 30.5153C54.0711 30.7725 53.2982 30.9068 52.519 30.9127C49.7564 30.9127 48.0164 28.6735 48.0164 25.0967C48.0164 20.2742 50.4058 16.896 53.8325 16.896C54.2188 16.8887 54.6041 16.9377 54.9763 17.0414L56.0183 17.3419C56.2443 17.3918 56.4616 17.4751 56.663 17.5891L56.6339 17.5988Z" fill="#F3AE12"/>
<path fill-rule="evenodd" clip-rule="evenodd" d="M39.6558 19.5908C39.5661 19.5655 39.4726 19.5556 39.3796 19.5618C38.5362 19.5618 38.0661 20.0464 37.2664 21.355L37.5184 19.6878H35.2065L33.6362 30.651H36.2001C37.121 23.9383 37.3682 22.7945 38.5847 22.7945C38.6518 22.7929 38.7187 22.8011 38.7834 22.8187C38.9543 21.7184 39.2807 20.6478 39.7528 19.6393L39.6558 19.5908Z" fill="#F3AE12"/>
<path fill-rule="evenodd" clip-rule="evenodd" d="M73.1854 30.5541H70.762L70.888 29.483C70.6171 29.8635 70.2586 30.1731 69.8426 30.3857C69.4267 30.5983 68.9657 30.7076 68.4986 30.7043C66.6326 30.7043 65.3919 28.8868 65.3919 26.1532C65.3919 22.4988 67.3063 19.4163 69.5697 19.4163C70.5391 19.4163 71.3339 19.901 72.0319 20.9333L72.5989 17.056H75.1241L73.1854 30.5347V30.5541ZM69.3807 27.9659C70.5972 27.9659 71.4163 26.4489 71.4163 24.263C71.4163 22.872 70.9317 22.1256 70.0496 22.1256C68.8815 22.1256 68.0624 23.6427 68.0624 25.8043C68.0624 27.2583 68.5083 27.9659 69.3807 27.9659Z" fill="#F3AE12"/>
<path fill-rule="evenodd" clip-rule="evenodd" d="M15.587 30.5008C14.7419 30.7999 13.8518 30.9523 12.9553 30.9515C10.0957 30.9515 8.59323 29.26 8.59323 26.0272C8.59323 22.2759 10.5077 19.489 13.0667 19.489C15.1799 19.489 16.5224 21.0303 16.5224 23.4924C16.508 24.404 16.4008 25.3118 16.2026 26.2017H11.1135C11.0956 26.3172 11.0875 26.4339 11.0893 26.5507C11.0893 27.8157 11.8599 28.4651 13.3527 28.4651C14.284 28.458 15.1987 28.2181 16.0136 27.7672L15.587 30.5008ZM14.133 23.9625C14.133 23.7396 14.1573 23.5409 14.1573 23.4197C14.1573 22.5231 13.7114 21.9996 12.9407 21.9996C12.1701 21.9996 11.5449 22.6976 11.2977 23.9383L14.133 23.9625Z" fill="#F3AE12"/>
<path fill-rule="evenodd" clip-rule="evenodd" d="M46.1213 30.5008C45.2745 30.7999 44.3828 30.9523 43.4847 30.9515C40.5767 30.9515 39.1227 29.26 39.1227 26.0272C39.1227 22.2759 41.0371 19.489 43.5962 19.489C45.7094 19.489 47.0761 21.0303 47.0761 23.4924C47.0617 24.404 46.9545 25.3118 46.7563 26.2017H41.643C41.6251 26.3172 41.617 26.4339 41.6187 26.5507C41.6187 27.8157 42.3894 28.4651 43.8822 28.4651C44.8135 28.4587 45.7284 28.2187 46.543 27.7672L46.1213 30.5008ZM44.6673 23.9625C44.6854 23.7822 44.6935 23.601 44.6916 23.4197C44.6916 22.5231 44.2457 21.9996 43.475 21.9996C42.7044 21.9996 42.084 22.6976 41.832 23.9383L44.6673 23.9625Z" fill="#F3AE12"/>
<path fill-rule="evenodd" clip-rule="evenodd" d="M81.9095 30.5008C81.0633 30.7959 80.1739 30.9483 79.2777 30.9515C76.4182 30.9515 74.9157 29.26 74.9157 26.0272C74.9157 22.2759 76.8301 19.489 79.4134 19.489C81.5266 19.489 82.8691 21.0303 82.8691 23.4924C82.8552 24.4043 82.7463 25.3123 82.5444 26.2017H77.4457C77.4278 26.3172 77.4197 26.4339 77.4214 26.5507C77.4214 27.8157 78.1921 28.4651 79.6848 28.4651C80.6146 28.4585 81.5279 28.2185 82.3409 27.7672L81.9192 30.5008H81.9095ZM80.4555 23.9625C80.4555 23.7396 80.4797 23.5409 80.4797 23.4197C80.4797 22.5231 80.0338 21.9996 79.2632 21.9996C78.4926 21.9996 77.8673 22.6976 77.6201 23.9383L80.4555 23.9625Z" fill="#F3AE12"/>
<path fill-rule="evenodd" clip-rule="evenodd" d="M7.98254 20.0852C7.35055 19.6602 6.60157 19.4433 5.84029 19.4648C4.79824 19.4648 3.97915 19.6878 3.97915 20.7831C3.97915 22.7218 7.75474 21.9996 7.75474 26.1775C7.75474 29.9822 5.26837 30.9758 3.00981 30.9758C1.96782 30.9426 0.94361 30.6968 0 30.2536L0.620379 27.4716C1.31857 27.9962 2.17045 28.2756 3.04374 28.2664C3.86283 28.2664 5.10844 28.0435 5.10844 26.6234C5.10844 24.4133 1.328 25.2324 1.328 21.355C1.328 17.7975 3.5381 16.7555 5.69004 16.7555C6.88233 16.7555 8.02617 16.93 8.67078 17.3759L8.00193 20.0852H7.98254Z" fill="#F3AE12"/>
<path fill-rule="evenodd" clip-rule="evenodd" d="M23.0946 30.5007C22.3758 30.814 21.5952 30.9598 20.8118 30.9273C18.5726 30.9273 17.1816 28.6881 17.1816 25.9545C17.1816 22.3728 19.193 19.5375 22.1543 19.5375C23.0076 19.5844 23.8379 19.8319 24.5777 20.2596L24.0058 22.872C23.5076 22.5039 22.9092 22.2959 22.29 22.2759C20.9233 22.2759 19.9297 23.5409 19.9297 25.78C19.9297 27.0741 20.6519 28.1404 21.7666 28.1404C22.3728 28.1442 22.9677 27.9761 23.4823 27.6557L23.1091 30.4862L23.0946 30.5007Z" fill="#F3AE12"/>
<path fill-rule="evenodd" clip-rule="evenodd" d="M32.6959 27.743C32.5699 28.6882 32.4439 29.609 32.3712 30.5784H29.9091L30.1078 28.8142H30.0836C29.3129 30.0065 28.5181 30.8256 27.098 30.8256C25.5567 30.8256 24.7134 29.1874 24.7134 27.0742C24.7211 26.3077 24.7875 25.5429 24.9121 24.7865L25.61 19.712H28.3678L27.6263 24.8108C27.531 25.3604 27.4727 25.9158 27.4518 26.4732C27.4518 27.1227 27.7523 27.7673 28.4987 27.7188C29.6134 27.7188 30.2871 26.352 30.4858 24.7332L31.2565 19.712H33.927L32.7105 27.743H32.6959Z" fill="#F3AE12"/>
<path fill-rule="evenodd" clip-rule="evenodd" d="M84.4831 30.4523H84.0566V28.6348H83.4604V28.2374H85.0793V28.6348H84.4831V30.4523Z" fill="#F3AE12"/>
<path fill-rule="evenodd" clip-rule="evenodd" d="M87.2409 30.4523H86.8434V28.6106L86.4702 30.4523H86.0728L85.6996 28.6106V30.4523H85.3022V28.2374H85.9226L86.2715 29.9773H86.2958L86.6447 28.2374H87.2409V30.4523Z" fill="#F3AE12"/>
</svg>
