<svg width="76" height="41" viewBox="0 0 76 41" fill="none" xmlns="http://www.w3.org/2000/svg">
<g clip-path="url(#clip0)">
<path d="M13.8996 6.29584C10.8415 6.41138 7.94727 7.70634 5.82464 9.90876C3.702 12.1112 2.51617 15.0497 2.51617 18.1071C2.51617 21.1646 3.702 24.1031 5.82464 26.3055C7.94727 28.5079 10.8415 29.8029 13.8996 29.9184H63.1723C66.2304 29.8029 69.1247 28.5079 71.2473 26.3055C73.3699 24.1031 74.5557 21.1646 74.5557 18.1071C74.5557 15.0497 73.3699 12.1112 71.2473 9.90876C69.1247 7.70634 66.2304 6.41138 63.1723 6.29584H13.8996Z" fill="white"/>
<path d="M63.1724 30.9243H13.8996C10.5277 30.878 7.30953 29.5073 4.9414 27.1087C2.57327 24.71 1.24558 21.4763 1.24558 18.1071C1.24558 14.7379 2.57327 11.5042 4.9414 9.10551C7.30953 6.70685 10.5277 5.33613 13.8996 5.28992H63.1724C66.5443 5.33613 69.7625 6.70685 72.1306 9.10551C74.4987 11.5042 75.8264 14.7379 75.8264 18.1071C75.8264 21.4763 74.4987 24.71 72.1306 27.1087C69.7625 29.5073 66.5443 30.878 63.1724 30.9243ZM13.8996 6.2958C10.8416 6.41134 7.94731 7.7063 5.82468 9.90871C3.70205 12.1111 2.51621 15.0496 2.51621 18.1071C2.51621 21.1645 3.70205 24.103 5.82468 26.3055C7.94731 28.5079 10.8416 29.8028 13.8996 29.9184H63.1724C66.2304 29.8028 69.1247 28.5079 71.2473 26.3055C73.37 24.103 74.5558 21.1645 74.5558 18.1071C74.5558 15.0496 73.37 12.1111 71.2473 9.90871C69.1247 7.7063 66.2304 6.41134 63.1724 6.2958H13.8996Z" fill="#D0D0D0"/>
<path d="M57.262 10.9344C56.5772 10.9368 55.9086 11.1419 55.3404 11.5237C54.7722 11.9055 54.33 12.4469 54.0697 13.0796C53.8093 13.7123 53.7424 14.4079 53.8774 15.0786C54.0125 15.7493 54.3434 16.3649 54.8284 16.8478C55.3134 17.3307 55.9308 17.6592 56.6025 17.7918C57.2743 17.9244 57.9703 17.8551 58.6027 17.5928C59.235 17.3304 59.7754 16.8868 60.1556 16.3178C60.5358 15.7488 60.7387 15.08 60.7387 14.3959C60.7387 13.9414 60.649 13.4913 60.4749 13.0713C60.3008 12.6513 60.0456 12.2697 59.7239 11.9483C59.4022 11.6269 59.0202 11.3719 58.5999 11.1979C58.1795 11.024 57.729 10.9344 57.274 10.9344H57.262ZM57.274 16.1713C56.9226 16.1713 56.579 16.0672 56.2868 15.8721C55.9946 15.677 55.7668 15.3998 55.6323 15.0753C55.4978 14.7509 55.4626 14.394 55.5312 14.0496C55.5998 13.7052 55.769 13.3889 56.0175 13.1406C56.266 12.8923 56.5827 12.7232 56.9274 12.6547C57.2721 12.5862 57.6293 12.6213 57.954 12.7557C58.2787 12.8901 58.5563 13.1176 58.7515 13.4096C58.9468 13.7016 59.051 14.0448 59.051 14.3959C59.051 14.8668 58.8638 15.3184 58.5305 15.6513C58.1973 15.9843 57.7453 16.1713 57.274 16.1713Z" fill="#1D1D1B"/>
<path d="M41.3753 10.9344C40.6901 10.9344 40.0202 11.1375 39.4505 11.5178C38.8807 11.8982 38.4366 12.4388 38.1744 13.0713C37.9122 13.7038 37.8436 14.3998 37.9772 15.0712C38.1109 15.7427 38.4409 16.3595 38.9254 16.8436C39.41 17.3277 40.0273 17.6574 40.6994 17.7909C41.3715 17.9245 42.0681 17.8559 42.7012 17.5939C43.3343 17.332 43.8754 16.8883 44.2561 16.319C44.6368 15.7498 44.84 15.0806 44.84 14.3959C44.84 13.9414 44.7503 13.4913 44.5762 13.0713C44.4021 12.6513 44.1469 12.2697 43.8252 11.9483C43.5035 11.6269 43.1215 11.3719 42.7012 11.1979C42.2808 11.024 41.8303 10.9344 41.3753 10.9344ZM41.3753 16.1713C41.0239 16.1713 40.6803 16.0672 40.3881 15.8721C40.0959 15.677 39.8681 15.3998 39.7336 15.0754C39.5991 14.7509 39.5639 14.394 39.6325 14.0496C39.701 13.7052 39.8703 13.3889 40.1188 13.1406C40.3673 12.8923 40.6839 12.7232 41.0286 12.6547C41.3733 12.5862 41.7306 12.6213 42.0553 12.7557C42.38 12.8901 42.6576 13.1176 42.8528 13.4096C43.0481 13.7016 43.1523 14.0448 43.1523 14.3959C43.1523 14.8668 42.9651 15.3184 42.6318 15.6513C42.2986 15.9843 41.8466 16.1713 41.3753 16.1713Z" fill="#1D1D1B"/>
<path d="M53.5752 16.2678C53.3529 16.332 53.1248 16.374 52.8943 16.3933C52.3028 16.3933 52.17 16.1906 52.17 15.6238V12.4276H53.5872V11.0913H52.17V9.20251H50.5765L50.2433 11.0913H49.0361C48.1283 11.0913 47.445 11.6485 47.0056 12.5169L46.4503 11.0913H45.3083V17.732H47.2616V14.8374C47.2616 13.3901 48.1235 12.4517 49.1424 12.4252H50.2119V15.7275C50.2119 17.2834 51.0087 17.8599 52.3076 17.8599C52.8148 17.8614 53.3189 17.7799 53.7997 17.6186L53.5752 16.2678Z" fill="#1D1D1B"/>
<path d="M63.0903 13.1923V17.732H61.1926V11.0912H62.3443L62.7306 12.1044" fill="#1D1D1B"/>
<path d="M62.7233 12.1116C63.3003 11.4434 64.0898 10.9344 65.017 10.9344C66.5984 10.9344 67.2478 12.196 67.2478 13.3635V17.732H65.2946V13.419C65.2946 12.8497 64.8117 12.541 64.3047 12.541C63.7977 12.541 63.4042 12.8546 63.0975 13.1898" fill="#1D1D1B"/>
<path d="M30.2933 8.68628H32.4687L35.4577 14.3742V8.68628H37.2612V17.732H35.2887L32.0968 11.4796V17.732H30.2933V8.68628Z" fill="#1D1D1B"/>
<path d="M73.0158 5.28992V5.61315H72.5402V7.20761H72.1708V5.61315H71.7048V5.28992H73.0158Z" fill="#B2B2B2"/>
<path d="M73.2814 7.20761V5.28992H73.7812L74.1144 6.54667L74.4524 5.28992H74.9594V7.20761H74.6528V5.70723H74.6455L74.2568 7.20761H73.9864L73.5953 5.70723H73.5856V7.20761H73.2814Z" fill="#B2B2B2"/>
<path d="M29.7501 25.7478L30.2015 25.0458C30.6623 25.3857 31.2199 25.5691 31.7926 25.5693C32.4445 25.5693 32.8477 25.275 32.8477 24.7612C32.8477 24.1702 32.3383 24.0134 31.5005 23.7239C30.752 23.461 30.0132 23.0823 30.0132 22.0185C30.0132 21.0247 30.7979 20.4819 31.8554 20.4819C32.4259 20.4574 32.9922 20.5901 33.4924 20.8655L33.1326 21.6133C32.744 21.4095 32.3112 21.3043 31.8723 21.3069C31.2832 21.3069 30.9307 21.5288 30.9307 21.9968C30.9307 22.5444 31.3411 22.6843 32.1089 22.9351C32.8767 23.186 33.799 23.5671 33.799 24.7443C33.799 25.7405 33.0747 26.3966 31.8071 26.3966C31.0692 26.4137 30.3465 26.1855 29.7525 25.7478" fill="#B2B2B2"/>
<path d="M35.5083 20.5712H38.9295V21.3672H36.4813V22.9351H38.4152V23.7142H36.4813V25.5258H39.0792V26.3194H35.5083V20.5712Z" fill="#B2B2B2"/>
<path d="M40.4723 23.4513C40.4723 21.7748 41.2763 20.4843 42.8867 20.4843C43.2024 20.4657 43.5182 20.5182 43.8107 20.6381C44.1033 20.7579 44.3651 20.942 44.5768 21.1766L44.0094 21.8327C43.8727 21.6744 43.7033 21.5476 43.5128 21.461C43.3223 21.3744 43.1153 21.33 42.906 21.331C41.9644 21.331 41.5298 22.1029 41.5298 23.5237C41.5298 24.86 41.9886 25.5355 42.9157 25.5355C43.1463 25.526 43.3723 25.467 43.5781 25.3625C43.7839 25.2581 43.9647 25.1105 44.1084 24.93L44.6806 25.5692C44.471 25.8371 44.2011 26.0518 43.8926 26.1955C43.5842 26.3393 43.2462 26.4082 42.906 26.3966C41.2522 26.3966 40.4917 25.135 40.4917 23.4513" fill="#B2B2B2"/>
<path d="M46.2523 24.1195V20.5736H47.235V24.2787C47.235 25.0699 47.4306 25.5861 48.2635 25.5861C49.0965 25.5861 49.2969 25.0699 49.2969 24.2787V20.5736H50.2868V24.1195C50.2868 25.5451 49.7387 26.3966 48.2563 26.3966C46.7738 26.3966 46.2523 25.5451 46.2523 24.1195Z" fill="#B2B2B2"/>
<path d="M56.2962 26.3219H55.2315L54.1281 23.8831H53.2179V26.3219H52.2521V20.5736H54.1281C55.2894 20.5736 56.1972 20.9885 56.1972 22.2477C56.2095 22.5831 56.109 22.9129 55.9116 23.1845C55.7142 23.456 55.4314 23.6536 55.1083 23.7456L56.2962 26.3219ZM54.0846 23.1329C54.8089 23.1329 55.1904 22.8917 55.1904 22.2308C55.1904 21.5698 54.8065 21.3672 54.1426 21.3672H53.2179V23.1329H54.0846Z" fill="#B2B2B2"/>
<path d="M57.9597 20.5712H61.3833V21.3672H58.9327V22.9351H60.8642V23.7142H58.9327V25.5258H61.5281V26.3194H57.9597V20.5712Z" fill="#B2B2B2"/>
<path d="M63.1748 20.5736H64.6234C66.4994 20.5736 67.3999 21.5867 67.3999 23.4248C67.3999 25.2629 66.4825 26.3194 64.6717 26.3194H63.1869L63.1748 20.5736ZM64.5534 25.521C65.8982 25.521 66.3569 24.9035 66.3569 23.42C66.3569 22.1198 65.9972 21.3624 64.6669 21.3624H64.1429V25.521H64.5534Z" fill="#B2B2B2"/>
<path d="M13.8416 31.935C11.104 31.935 8.42788 31.1239 6.15163 29.6044C3.87538 28.0848 2.10126 25.925 1.05362 23.3981C0.0059743 20.8711 -0.268137 18.0905 0.265947 15.408C0.800031 12.7254 2.11832 10.2613 4.05411 8.32724C5.9899 6.39321 8.45625 5.07612 11.1413 4.54252C13.8263 4.00893 16.6094 4.28278 19.1386 5.32947C21.6679 6.37617 23.8296 8.14867 25.3506 10.4229C26.8715 12.697 27.6833 15.3708 27.6833 18.1059C27.6788 21.7722 26.2191 25.2871 23.6242 27.8796C21.0294 30.4721 17.5113 31.9305 13.8416 31.935ZM13.8416 8.65252C11.6519 8.65212 9.5298 9.41033 7.8369 10.798C6.144 12.1856 4.98508 14.1168 4.55761 16.2624C4.13015 18.4081 4.4606 20.6354 5.49265 22.5649C6.52469 24.4944 8.19448 26.0067 10.2175 26.8441C12.2405 27.6814 14.4915 27.792 16.587 27.157C18.6824 26.522 20.4927 25.1807 21.7092 23.3617C22.9258 21.5427 23.4734 19.3585 23.2587 17.1813C23.044 15.0041 22.0804 12.9686 20.5319 11.4217C19.6549 10.5418 18.6121 9.84412 17.4639 9.36884C16.3156 8.89356 15.0845 8.6501 13.8416 8.65252Z" fill="#FDC300"/>
<path d="M29.9963 2.14929H28.9171V3.22754H29.9963V2.14929Z" fill="#FDC300"/>
<path d="M29.9963 0H28.9171V1.08066H29.9963V0Z" fill="#FDC300"/>
<path d="M26.889 3.22028H25.8822V4.27199H26.889V3.22028Z" fill="#FDC300"/>
<path d="M24.8995 5.28754H23.8831V6.29342H24.8995V5.28754Z" fill="#1D1D1B"/>
<path d="M28.0189 4.27197H26.889V5.28509H28.0189V4.27197Z" fill="#1D1D1B"/>
<path d="M23.8831 4.32263H22.8715V5.28751H23.8831V4.32263Z" fill="#1D1D1B"/>
<path d="M26.889 5.28754H25.8822V6.29342H26.889V5.28754Z" fill="#1D1D1B"/>
<path d="M28.9171 1.08069H27.8499V2.14929H28.9171V1.08069Z" fill="#1D1D1B"/>
<path d="M27.85 2.14929H25.8822V3.2203H27.85V2.14929Z" fill="#1D1D1B"/>
<path d="M25.8798 3.22028H24.8995V5.28752H25.8798V3.22028Z" fill="#1D1D1B"/>
<path d="M24.902 6.2934V7.30893H23.8855V6.2934H22.1955V7.01705H21.2925V7.91921H22.3017V8.9251H21.2925V7.91921H20.2205V9.49678H19.2113V10.5027H18.5353V11.5303H17.794C16.9635 12.7653 14.8799 16.6176 14.2497 18.1855C11.9802 15.0279 10.2177 13.776 8.82943 13.3249C8.08097 13.0982 7.17799 13.9135 8.4214 15.1968C11.2776 18.3326 12.1782 20.933 13.0449 23.0075C13.5061 24.1002 15.5656 24.269 15.9784 23.157C16.9083 20.6297 18.1379 18.2229 19.641 15.988V14.8639H20.4474V13.8484H21.2949V12.6736H22.3065V11.5303H21.2828V10.5003H22.3065V11.5303H23.3157V10.5123H24.1197V9.27969H25.0058V8.43301H25.875V6.2958L24.902 6.2934Z" fill="#1D1D1B"/>
<path d="M5.37682 36.675H6.13494V37.2274C6.25337 37.0373 6.41844 36.8805 6.6145 36.772C6.81055 36.6635 7.0311 36.6069 7.25522 36.6074C8.03748 36.6074 8.79559 37.2274 8.79559 38.3225V38.3346C8.79559 39.4297 8.04472 40.0472 7.25522 40.0472C7.03513 40.0493 6.81789 39.9974 6.62256 39.896C6.42724 39.7947 6.2598 39.647 6.13494 39.4659V40.9807H5.37682V36.675ZM8.03265 38.3346V38.3225C8.03265 37.6833 7.60047 37.2635 7.08621 37.2635C6.95258 37.2678 6.82116 37.2988 6.69974 37.3547C6.57831 37.4107 6.46936 37.4903 6.37931 37.5891C6.28926 37.6878 6.21995 37.8036 6.17549 37.9296C6.13103 38.0556 6.11231 38.1892 6.12045 38.3225V38.3346C6.11163 38.4679 6.12988 38.6017 6.17411 38.7278C6.21835 38.8539 6.28766 38.9698 6.37787 39.0685C6.46808 39.1672 6.57733 39.2467 6.69906 39.3021C6.82079 39.3575 6.95247 39.3878 7.08621 39.3911C7.6053 39.3911 8.03265 38.9858 8.03265 38.3346Z" fill="#B2B2B2"/>
<path d="M9.41366 38.3466V38.3346C9.41174 37.8675 9.59559 37.4189 9.92476 37.0873C10.2539 36.7557 10.7015 36.5683 11.1689 36.5664C11.6364 36.5645 12.0854 36.7482 12.4173 37.0771C12.7492 37.4059 12.9367 37.8531 12.9387 38.3201V38.3346C12.9378 38.5645 12.8909 38.7919 12.8009 39.0034C12.7109 39.215 12.5795 39.4065 12.4145 39.5667C12.2494 39.7269 12.054 39.8526 11.8397 39.9363C11.6254 40.0201 11.3965 40.0602 11.1665 40.0544C10.9384 40.0602 10.7114 40.0203 10.499 39.9371C10.2866 39.8539 10.093 39.729 9.92959 39.5698C9.76623 39.4107 9.63641 39.2204 9.54781 39.0104C9.4592 38.8003 9.41358 38.5746 9.41366 38.3466ZM12.1805 38.3466V38.3346C12.1867 38.1975 12.1651 38.0606 12.117 37.932C12.0689 37.8035 11.9952 37.686 11.9005 37.5867C11.8058 37.4873 11.6919 37.4081 11.5658 37.3538C11.4397 37.2995 11.3038 37.2713 11.1665 37.2708C11.0309 37.2699 10.8965 37.2968 10.7717 37.3499C10.6469 37.4031 10.5344 37.4813 10.4411 37.5797C10.3478 37.6781 10.2758 37.7946 10.2295 37.9219C10.1831 38.0493 10.1635 38.1848 10.1718 38.3201V38.3346C10.1663 38.4709 10.1881 38.6069 10.2361 38.7346C10.284 38.8624 10.357 38.9793 10.4508 39.0784C10.5446 39.1775 10.6574 39.2569 10.7823 39.3118C10.9073 39.3668 11.042 39.3962 11.1786 39.3983C11.3147 39.3992 11.4496 39.3722 11.5749 39.319C11.7003 39.2658 11.8133 39.1875 11.9072 39.089C12.0011 38.9904 12.0738 38.8737 12.1208 38.7461C12.1678 38.6184 12.1881 38.4824 12.1805 38.3466Z" fill="#B2B2B2"/>
<path d="M13.3033 36.675H14.0807L14.7447 38.94L15.4762 36.6629H16.1209L16.8597 38.94L17.5381 36.675H18.2938L17.2122 40.0038H16.5337L15.7973 37.746L15.0513 40.0038H14.3753L13.3033 36.675Z" fill="#B2B2B2"/>
<path d="M18.6849 38.3394V38.3273C18.6849 37.3817 19.3561 36.6074 20.3001 36.6074C21.3528 36.6074 21.8864 37.4324 21.8864 38.3852C21.8864 38.4527 21.8864 38.5227 21.8743 38.5975H19.4527C19.4741 38.832 19.5847 39.0495 19.7616 39.2051C19.9385 39.3608 20.1684 39.4429 20.404 39.4345C20.5725 39.4351 20.7392 39.4004 20.8935 39.3326C21.0478 39.2649 21.1861 39.1657 21.2997 39.0413L21.7439 39.4345C21.5177 39.7064 21.2131 39.9021 20.8716 39.9951C20.5302 40.088 20.1684 40.0737 19.8353 39.9541C19.5022 39.8345 19.2141 39.6154 19.01 39.3265C18.806 39.0376 18.6958 38.693 18.6946 38.3394H18.6849ZM21.1428 38.0982C21.0945 37.6157 20.8047 37.2298 20.305 37.2298C19.8052 37.2298 19.5155 37.5868 19.4455 38.0982H21.1428Z" fill="#B2B2B2"/>
<path d="M22.6759 36.675H23.4316V37.4203C23.5115 37.1763 23.6693 36.9651 23.8808 36.8192C24.0923 36.6732 24.3458 36.6006 24.6025 36.6122V37.4131H24.5591C23.8951 37.4131 23.4316 37.8473 23.4316 38.7229V39.9797H22.6759V36.675Z" fill="#B2B2B2"/>
<path d="M25.0444 38.3394V38.3273C25.0444 37.3817 25.7132 36.6074 26.6596 36.6074C27.7123 36.6074 28.2435 37.4324 28.2435 38.3852C28.2435 38.4527 28.2435 38.5227 28.2314 38.5975H25.8025C25.8234 38.8323 25.9338 39.05 26.1108 39.2058C26.2879 39.3616 26.5181 39.4435 26.7538 39.4345C26.9223 39.4351 27.0891 39.4004 27.2433 39.3326C27.3976 39.2649 27.536 39.1657 27.6495 39.0413L28.0938 39.4345C27.9315 39.635 27.7251 39.7953 27.4905 39.9029C27.256 40.0104 26.9997 40.0623 26.7417 40.0544C26.5159 40.0603 26.2914 40.0197 26.0819 39.9352C25.8725 39.8507 25.6826 39.7241 25.5242 39.5633C25.3657 39.4025 25.242 39.2109 25.1607 39.0004C25.0795 38.7898 25.0423 38.5648 25.0517 38.3394H25.0444ZM27.4998 38.0982C27.4491 37.6157 27.1618 37.2298 26.6596 37.2298C26.1961 37.2298 25.8726 37.5868 25.8025 38.0982H27.4998Z" fill="#B2B2B2"/>
<path d="M28.8688 38.3345V38.3225C28.8688 37.2273 29.6148 36.6074 30.4019 36.6074C30.6229 36.606 30.8409 36.6582 31.0373 36.7594C31.2337 36.8607 31.4025 37.008 31.5294 37.1887V35.4109H32.2875V39.9796H31.5246V39.4297C31.4045 39.6197 31.2381 39.7761 31.0408 39.8842C30.8436 39.9922 30.622 40.0483 30.3971 40.0472C29.6221 40.0472 28.864 39.4297 28.864 38.3345H28.8688ZM31.5391 38.3345V38.3225C31.5483 38.1889 31.5303 38.0549 31.4862 37.9285C31.4421 37.802 31.3728 37.6859 31.2826 37.5869C31.1923 37.488 31.083 37.4083 30.9611 37.3527C30.8392 37.2971 30.7073 37.2668 30.5733 37.2635C30.0518 37.2635 29.6196 37.6639 29.6196 38.3225V38.3345C29.6098 38.4671 29.627 38.6003 29.6701 38.7261C29.7132 38.8519 29.7814 38.9677 29.8705 39.0664C29.9596 39.1652 30.0678 39.2448 30.1886 39.3006C30.3094 39.3564 30.4403 39.3872 30.5733 39.3911C30.707 39.3874 30.8385 39.357 30.9601 39.3014C31.0816 39.2459 31.1907 39.1664 31.2809 39.0678C31.371 38.9692 31.4404 38.8534 31.4847 38.7274C31.5291 38.6014 31.5476 38.4678 31.5391 38.3345Z" fill="#B2B2B2"/>
<path d="M35.8705 39.4658V39.9796H35.1124V35.4109H35.8705V37.2273C35.9892 37.0374 36.1543 36.8808 36.3503 36.7723C36.5463 36.6639 36.7668 36.6071 36.9908 36.6074C37.7731 36.6074 38.5312 37.2273 38.5312 38.3225V38.3345C38.5312 39.4297 37.7803 40.0472 36.9908 40.0472C36.7707 40.0493 36.5535 39.9974 36.3582 39.896C36.1628 39.7946 35.9954 39.6469 35.8705 39.4658ZM37.761 38.3345V38.3225C37.761 37.6832 37.3288 37.2635 36.8146 37.2635C36.6809 37.2678 36.5495 37.2988 36.4281 37.3547C36.3067 37.4106 36.1977 37.4903 36.1077 37.5891C36.0176 37.6878 35.9483 37.8036 35.9039 37.9296C35.8594 38.0555 35.8407 38.1891 35.8488 38.3225V38.3345C35.84 38.4679 35.8582 38.6017 35.9025 38.7278C35.9467 38.8539 36.016 38.9698 36.1062 39.0685C36.1964 39.1672 36.3057 39.2467 36.4274 39.3021C36.5491 39.3575 36.6808 39.3878 36.8146 39.3911C37.3361 39.3911 37.761 38.9858 37.761 38.3345Z" fill="#B2B2B2"/>
<path d="M39.0357 40.7998L39.2917 40.2353C39.4264 40.3147 39.5795 40.3579 39.7359 40.3607C39.9508 40.3607 40.0812 40.2667 40.2067 39.9796L38.8281 36.6749H39.6369L40.5761 39.1281L41.4236 36.6749H42.2131L40.8972 40.0737C40.6365 40.7491 40.3419 41 39.8083 41C39.5344 41.0039 39.2644 40.9348 39.0261 40.7998" fill="#B2B2B2"/>
<path d="M44.4609 35.5991H45.3132L46.6338 38.9641L47.9497 35.5991H48.7826L46.9598 40.011H46.2837L44.4609 35.5991Z" fill="#A50343"/>
<path d="M48.9396 38.3394V38.3273C48.9396 37.3817 49.6084 36.6074 50.5548 36.6074C51.6075 36.6074 52.1387 37.4324 52.1387 38.3852C52.1387 38.4527 52.1387 38.5227 52.1266 38.5975H49.6977C49.7186 38.8323 49.829 39.05 50.006 39.2058C50.1831 39.3616 50.4132 39.4435 50.649 39.4345C50.8175 39.4351 50.9842 39.4004 51.1385 39.3326C51.2928 39.2649 51.4312 39.1657 51.5447 39.0413L51.989 39.4345C51.8267 39.635 51.6203 39.7953 51.3857 39.9029C51.1511 40.0104 50.8949 40.0623 50.6369 40.0544C50.4111 40.0603 50.1866 40.0197 49.9771 39.9352C49.7677 39.8507 49.5778 39.7241 49.4194 39.5633C49.2609 39.4025 49.1372 39.2109 49.0559 39.0004C48.9746 38.7898 48.9375 38.5648 48.9468 38.3394H48.9396ZM51.395 38.0982C51.3443 37.6157 51.057 37.2298 50.5548 37.2298C50.0913 37.2298 49.7677 37.5868 49.6977 38.0982H51.395Z" fill="#A50343"/>
<path d="M52.9282 36.675H53.6863V37.4203C53.7662 37.1763 53.924 36.9651 54.1355 36.8192C54.347 36.6732 54.6005 36.6006 54.8573 36.6122V37.4131H54.8138C54.1498 37.4131 53.6863 37.8473 53.6863 38.7229V39.9797H52.9282V36.675Z" fill="#A50343"/>
<path d="M55.4777 35.4495H56.2914V36.1732H55.4777V35.4495ZM55.5091 36.6749H56.2672V39.9796H55.5091V36.6749Z" fill="#A50343"/>
<path d="M57.0519 39.3428L57.5154 38.7905C57.8864 39.1505 58.3817 39.3543 58.8989 39.3597C59.3818 39.3597 59.6763 39.1402 59.6763 38.8097C59.6763 38.4962 59.5001 38.3273 58.6864 38.1392C57.7545 37.9148 57.2378 37.6398 57.2378 36.8318C57.2378 36.0792 57.8631 35.5605 58.7347 35.5605C59.3134 35.5484 59.8772 35.7445 60.3234 36.1129L59.9105 36.6943C59.5739 36.4177 59.1557 36.2592 58.7202 36.2432C58.2712 36.2432 57.9959 36.4844 57.9959 36.7618V36.7763C57.9959 37.114 58.1963 37.2587 59.0365 37.4637C59.9612 37.6881 60.4441 38.021 60.4441 38.747C60.4441 39.5672 59.7995 40.0544 58.8772 40.0544C58.2019 40.0572 57.55 39.8077 57.0495 39.3549" fill="#A50343"/>
<path d="M61.2819 35.4495H62.0955V36.1732H61.2819V35.4495ZM61.3133 36.6749H62.0714V39.9796H61.3133V36.6749Z" fill="#A50343"/>
<path d="M63.0251 40.5996L63.3076 40.0303C63.657 40.2588 64.0657 40.3804 64.4834 40.3801C65.1618 40.3801 65.5288 40.0303 65.5288 39.3669V39.1112C65.4 39.3003 65.2263 39.4546 65.0232 39.5603C64.8201 39.6659 64.594 39.7197 64.3651 39.7167C64.1632 39.7192 63.9631 39.6805 63.7767 39.6031C63.5903 39.5257 63.4217 39.4111 63.2812 39.2664C63.1407 39.1217 63.0311 38.9499 62.9593 38.7615C62.8874 38.573 62.8548 38.3719 62.8633 38.1705V38.1584C62.8561 37.9579 62.8896 37.7581 62.9617 37.5709C63.0338 37.3836 63.1431 37.2129 63.2829 37.0689C63.4227 36.925 63.5902 36.8107 63.7754 36.733C63.9605 36.6554 64.1594 36.6159 64.3602 36.617C64.584 36.6132 64.8056 36.662 65.0069 36.7597C65.2083 36.8573 65.3837 37.001 65.5191 37.1791V36.6846H66.2917V39.3139C66.3085 39.5388 66.2799 39.7649 66.2078 39.9787C66.1356 40.1925 66.0213 40.3896 65.8716 40.5586C65.5723 40.8577 65.1087 41.0024 64.5123 41.0024C63.9932 41.0079 63.4823 40.872 63.0347 40.6092L63.0251 40.5996ZM65.5457 38.1801V38.1681C65.5442 38.0441 65.5178 37.9218 65.4681 37.8082C65.4184 37.6946 65.3464 37.5922 65.2563 37.5069C65.1663 37.4217 65.06 37.3554 64.9438 37.3119C64.8276 37.2684 64.7039 37.2487 64.5799 37.2539C64.4574 37.2475 64.3348 37.2665 64.22 37.3096C64.1051 37.3527 64.0003 37.4189 63.9122 37.5043C63.8241 37.5896 63.7545 37.6921 63.7078 37.8055C63.6611 37.9189 63.6382 38.0407 63.6407 38.1632V38.1753C63.639 38.2978 63.6623 38.4194 63.7092 38.5325C63.7561 38.6457 63.8257 38.7481 63.9136 38.8335C64.0015 38.9188 64.106 38.9854 64.2206 39.029C64.3352 39.0726 64.4574 39.0924 64.5799 39.0871C64.7033 39.0923 64.8264 39.0728 64.9421 39.0298C65.0578 38.9867 65.1638 38.921 65.2537 38.8366C65.3437 38.7521 65.4159 38.6505 65.466 38.5378C65.5161 38.4251 65.5432 38.3035 65.5457 38.1801Z" fill="#A50343"/>
<path d="M67.2575 36.6749H68.0156V37.1887C68.1221 37.0102 68.2736 36.8626 68.4548 36.7607C68.6361 36.6587 68.8409 36.6058 69.049 36.6074C69.795 36.6074 70.2248 37.1067 70.2248 37.8762V39.9796H69.4666V38.103C69.4666 37.5892 69.2107 37.2949 68.7616 37.2949C68.3126 37.2949 68.0156 37.6012 68.0156 38.115V39.9796H67.2575V36.6749Z" fill="#A50343"/>
</g>
<defs>
<clipPath id="clip0">
<rect width="76" height="41" fill="white"/>
</clipPath>
</defs>
</svg>
