<svg width="63" height="31" viewBox="0 0 63 31" fill="none" xmlns="http://www.w3.org/2000/svg">
<g clip-path="url(#clip0)">
<path d="M1.82194 6.25317H41.3978V24.7476H1.82194C1.33911 24.7476 0.876027 24.5568 0.53441 24.2171C0.192792 23.8775 0.000581488 23.4167 0 22.936L0 8.06621C0.000193931 7.5853 0.192234 7.12415 0.533893 6.78416C0.875553 6.44417 1.33886 6.25317 1.82194 6.25317Z" fill="#3E404F"/>
<path d="M62.9993 2.61252L60.4591 0.00146484C58.4111 2.04022 52.1824 2.1225 50.0518 0.00146484C47.9212 2.1225 41.6933 2.04022 39.6446 0.00146484L37.1044 2.61252C37.1044 2.61252 38.6609 5.38596 38.6609 7.75164C38.6609 11.6675 37.1044 13.1361 37.1044 18.2753C37.1044 27.6572 48.167 29.5335 50.0504 31.0022C52.0983 29.5335 62.9963 27.6572 62.9963 18.2753C62.9963 13.1361 61.4399 11.8306 61.4399 7.75164C61.4428 5.3845 62.9993 2.61252 62.9993 2.61252Z" fill="url(#paint0_linear)"/>
<path d="M48.9204 17.6185L43.9007 12.6214L41.8206 14.6914L48.9204 21.7593L59.2793 11.4469L57.1992 9.3761L48.9204 17.6185Z" fill="white"/>
<path d="M9.42494 11.2299H8.22982V10.9612C8.23612 10.7123 8.16899 10.467 8.03672 10.2556C7.90799 10.0576 7.69125 9.95856 7.3865 9.95856C7.24777 9.95245 7.11005 9.98471 6.98861 10.0518C6.89072 10.1111 6.80668 10.1905 6.74213 10.2848C6.67813 10.3906 6.63448 10.5074 6.6134 10.6292C6.5896 10.7618 6.57785 10.8963 6.57829 11.0311C6.57704 11.1675 6.5829 11.3038 6.59584 11.4396C6.60537 11.5415 6.63521 11.6405 6.68361 11.7308C6.73407 11.8184 6.80416 11.8931 6.88841 11.9493C7.00427 12.0247 7.12814 12.0872 7.25777 12.1357L8.1713 12.4997C8.40416 12.5826 8.62183 12.7029 8.81568 12.8558C8.97481 12.986 9.10613 13.1467 9.20186 13.3283C9.29229 13.53 9.35171 13.744 9.37813 13.9633C9.41097 14.2321 9.42661 14.5028 9.42494 14.7737C9.42742 15.1013 9.39208 15.4282 9.31962 15.7479C9.25997 16.023 9.14421 16.283 8.97951 16.5117C8.81043 16.7321 8.58901 16.9072 8.33514 17.0214C8.02921 17.1555 7.69727 17.2207 7.36309 17.2122C7.08761 17.2137 6.81442 17.1623 6.55854 17.0607C6.31748 16.9654 6.09828 16.8225 5.91417 16.6406C5.734 16.4609 5.58913 16.2492 5.48702 16.0166C5.37987 15.7721 5.32602 15.5078 5.32904 15.2411V14.7984H6.52343V15.1712C6.52153 15.3833 6.58934 15.5901 6.71653 15.7603C6.84525 15.935 7.062 16.0224 7.36675 16.0224C7.52965 16.0304 7.69217 16.0004 7.84144 15.935C7.95182 15.8788 8.04333 15.7918 8.10475 15.6845C8.17033 15.564 8.2083 15.4304 8.21592 15.2935C8.22762 15.1421 8.23347 14.9722 8.23347 14.7839C8.23515 14.6047 8.22734 14.4256 8.21007 14.2472C8.20087 14.1294 8.16909 14.0145 8.11645 13.9086C8.06042 13.8229 7.98535 13.7512 7.89702 13.6989C7.78193 13.6327 7.66243 13.5743 7.53936 13.5242L6.68434 13.174C6.16894 12.9643 5.82347 12.6864 5.64793 12.3403C5.4724 11.9942 5.38463 11.5607 5.38463 11.0398C5.38289 10.7397 5.42628 10.441 5.51336 10.1537C5.59083 9.88905 5.72229 9.64316 5.89954 9.43139C6.06904 9.2249 6.28335 9.05936 6.52636 8.94719C6.81237 8.82054 7.12334 8.75957 7.43623 8.76879C7.71615 8.76569 7.99357 8.82152 8.2503 8.93262C8.48782 9.03624 8.70423 9.18234 8.88882 9.36368C9.05949 9.53137 9.19502 9.73112 9.28755 9.95135C9.38008 10.1716 9.42778 10.4079 9.42787 10.6466L9.42494 11.2299Z" fill="white"/>
<path d="M10.3151 17.1423V8.84161H13.8727V9.96075H11.5095V12.3978H13.5713V13.5176H11.5095V15.9547H13.8727V17.1444L10.3151 17.1423Z" fill="white"/>
<path d="M18.444 14.7722V15.2855C18.4454 15.5356 18.3957 15.7834 18.2977 16.0137C18.2021 16.2413 18.0658 16.4498 17.8954 16.6289C17.7235 16.8078 17.5186 16.9522 17.292 17.0542C17.0586 17.1603 16.8047 17.2143 16.5482 17.2122C16.3147 17.2111 16.0823 17.1798 15.857 17.119C15.6246 17.0574 15.4086 16.9458 15.2243 16.792C15.0292 16.6266 14.8717 16.4219 14.762 16.1913C14.6406 15.9486 14.5799 15.6358 14.5799 15.2528V10.6816C14.5774 10.4222 14.6254 10.1649 14.7211 9.92362C14.8107 9.69648 14.9461 9.49005 15.119 9.31709C15.295 9.14355 15.5041 9.00689 15.7341 8.91517C15.9855 8.81533 16.2541 8.76584 16.5248 8.76954C17.087 8.76954 17.5439 8.9523 17.8954 9.31782C18.0697 9.50193 18.2068 9.71775 18.2992 9.95348C18.399 10.2087 18.4487 10.4806 18.4454 10.7544V11.2211H17.2496V10.8243C17.2542 10.6055 17.1841 10.3917 17.0506 10.2178C16.988 10.1351 16.9064 10.0687 16.8125 10.0241C16.7187 9.9795 16.6155 9.95802 16.5116 9.96148C16.2146 9.96148 16.0172 10.0532 15.9199 10.2353C15.8151 10.4513 15.7649 10.6895 15.7736 10.9292V15.1741C15.7661 15.3873 15.821 15.598 15.9316 15.7807C16.0369 15.9438 16.2263 16.0253 16.4999 16.0253C16.5853 16.0243 16.6701 16.0106 16.7515 15.9845C16.8434 15.9563 16.9291 15.9108 17.0038 15.8506C17.0806 15.7788 17.1405 15.691 17.1794 15.5935C17.231 15.4639 17.2559 15.3252 17.2525 15.1858V14.7722H18.444Z" fill="white"/>
<path d="M23.2822 8.83948V15.2761C23.2858 15.5293 23.238 15.7806 23.1419 16.0151C23.0458 16.2495 22.9032 16.4622 22.7227 16.6406C22.5443 16.8186 22.3336 16.9612 22.1017 17.0608C21.8649 17.162 21.6097 17.2136 21.352 17.2122C21.0962 17.214 20.8428 17.1624 20.6082 17.0608C20.1457 16.857 19.7762 16.4888 19.5718 16.0283C19.4686 15.791 19.4168 15.5347 19.4197 15.2761V8.83948H20.614V15.1596C20.614 15.4553 20.6843 15.6737 20.8247 15.8149C20.967 15.9495 21.1558 16.0245 21.352 16.0245C21.5483 16.0245 21.7371 15.9495 21.8794 15.8149C22.0198 15.6751 22.09 15.4567 22.09 15.1596V8.83948H23.2822Z" fill="white"/>
<path d="M24.4049 17.1423V8.84161H26.3256C27.7314 8.84161 28.4343 9.65396 28.4343 11.2787C28.4343 11.7689 28.3582 12.1849 28.2061 12.5267C28.0539 12.8684 27.7865 13.1436 27.4037 13.3524L28.6925 17.1386H27.4271L26.3139 13.5934H25.5993V17.1386L24.4049 17.1423ZM25.5993 9.95856V12.5471H26.2788C26.4511 12.5542 26.623 12.5244 26.7827 12.4597C26.9025 12.4061 27.0042 12.3191 27.0753 12.2092C27.1436 12.0846 27.1873 11.9482 27.204 11.8073C27.2518 11.4394 27.2518 11.0669 27.204 10.6991C27.1855 10.553 27.1378 10.4121 27.0636 10.2848C26.9173 10.0678 26.6362 9.95905 26.2203 9.95856H25.5993Z" fill="white"/>
<path d="M29.3961 17.1423V8.84161H32.9573V9.96075H30.5912V12.3978H32.6531V13.5176H30.5912V15.9547H32.9573V17.1444L29.3961 17.1423Z" fill="white"/>
<path d="M7.21171 19.4789H6.66169V19.3551C6.66492 19.2405 6.63414 19.1276 6.57319 19.0303C6.53974 18.9834 6.4945 18.9461 6.442 18.9221C6.3895 18.8981 6.33158 18.8882 6.27404 18.8935C6.21004 18.8907 6.14652 18.9056 6.09046 18.9364C6.04544 18.964 6.0068 19.0007 5.97709 19.0442C5.94776 19.0928 5.92768 19.1463 5.91785 19.2022C5.90684 19.2632 5.90146 19.3251 5.90176 19.3871C5.90129 19.4498 5.90397 19.5125 5.9098 19.575C5.91418 19.6221 5.92785 19.6679 5.95003 19.7097C5.97337 19.7503 6.00562 19.7851 6.04438 19.8116C6.09789 19.8461 6.15503 19.8747 6.2148 19.8968L6.63463 20.0636C6.74191 20.1017 6.84221 20.157 6.93158 20.2274C7.00489 20.2876 7.06532 20.3619 7.10931 20.4458C7.15066 20.5384 7.17802 20.6365 7.1905 20.7371C7.20536 20.8608 7.21244 20.9853 7.21171 21.1099C7.21284 21.2607 7.19664 21.4112 7.16344 21.5584C7.1361 21.6849 7.08281 21.8043 7.00692 21.9094C6.92941 22.0115 6.82761 22.0928 6.71069 22.146C6.56955 22.2068 6.41679 22.2361 6.26307 22.2319C6.1354 22.232 6.00893 22.2073 5.89078 22.1591C5.77984 22.1153 5.67905 22.0494 5.59456 21.9654C5.51138 21.883 5.44462 21.7857 5.39781 21.6785C5.34853 21.566 5.32361 21.4445 5.32467 21.3218V21.1179H5.87396V21.2897C5.87338 21.3873 5.9047 21.4823 5.96319 21.5606C6.02244 21.6414 6.12191 21.6814 6.26234 21.6814C6.3376 21.6851 6.4127 21.6714 6.48176 21.6414C6.53274 21.6155 6.57495 21.5752 6.60318 21.5256C6.63381 21.4704 6.65132 21.4088 6.65438 21.3458C6.66023 21.273 6.66242 21.2002 6.66242 21.1128C6.66242 21.0123 6.65876 20.93 6.65218 20.8652C6.64757 20.8113 6.63294 20.7587 6.60903 20.7101C6.58344 20.6707 6.54917 20.6376 6.50883 20.6133C6.45602 20.5826 6.40102 20.5558 6.34426 20.5332L5.95076 20.3716C5.71378 20.2745 5.55482 20.1466 5.47388 19.9878C5.38714 19.8007 5.34557 19.596 5.35247 19.39C5.35166 19.2519 5.37163 19.1145 5.41171 18.9823C5.44728 18.8602 5.50807 18.7469 5.59017 18.6495C5.66782 18.5543 5.76642 18.4781 5.87835 18.4267C6.00953 18.3681 6.15224 18.3395 6.29599 18.343C6.42459 18.3405 6.55224 18.3654 6.67047 18.4158C6.77941 18.4633 6.8786 18.5305 6.96303 18.6139C7.04153 18.6911 7.10386 18.783 7.14642 18.8844C7.18898 18.9858 7.21092 19.0945 7.21098 19.2044L7.21171 19.4789Z" fill="white"/>
<path d="M9.4001 19.4789H8.85081V19.3551C8.85361 19.2405 8.82259 19.1276 8.76158 19.0303C8.72799 18.983 8.6824 18.9455 8.62947 18.9214C8.57653 18.8974 8.51814 18.8877 8.46024 18.8934C8.39625 18.8908 8.33274 18.9056 8.27666 18.9364C8.23175 18.9638 8.19333 19.0006 8.16402 19.0442C8.13415 19.0925 8.11403 19.1462 8.10478 19.2022C8.09353 19.2632 8.0879 19.3251 8.08795 19.3871C8.08748 19.4498 8.09017 19.5125 8.096 19.575C8.10072 19.6221 8.11463 19.6679 8.13696 19.7097C8.15987 19.7506 8.19221 19.7855 8.23131 19.8116C8.28446 19.8463 8.34139 19.8749 8.401 19.8968L8.82156 20.0635C8.92733 20.1021 9.02614 20.1574 9.11412 20.2274C9.18743 20.2876 9.24786 20.3619 9.29185 20.4458C9.3332 20.5384 9.36056 20.6365 9.37304 20.7371C9.3879 20.8608 9.39499 20.9853 9.39425 21.1099C9.39538 21.2607 9.37918 21.4112 9.34598 21.5584C9.31864 21.6849 9.26535 21.8043 9.18946 21.9094C9.11195 22.0115 9.01016 22.0928 8.89324 22.146C8.75213 22.2068 8.59933 22.2362 8.44561 22.2319C8.31817 22.2321 8.19193 22.2073 8.07406 22.1591C7.96279 22.1155 7.86171 22.0495 7.7771 21.9654C7.69415 21.8828 7.62742 21.7855 7.58035 21.6785C7.53108 21.566 7.50615 21.4445 7.50721 21.3218V21.1179H8.05723V21.2897C8.05639 21.3872 8.08746 21.4823 8.14574 21.5606C8.18197 21.6034 8.22815 21.6368 8.28028 21.6579C8.3324 21.6789 8.3889 21.687 8.44488 21.6814C8.52013 21.6849 8.59518 21.6712 8.6643 21.6414C8.71501 21.6154 8.75696 21.5751 8.78499 21.5256C8.81562 21.4704 8.83313 21.4088 8.83619 21.3458C8.84204 21.273 8.84496 21.2002 8.84496 21.1128C8.8458 21.0301 8.84213 20.9475 8.83399 20.8652C8.82938 20.8113 8.81474 20.7587 8.79084 20.7101C8.76532 20.6709 8.73134 20.6378 8.69137 20.6133C8.63841 20.5829 8.58343 20.5561 8.5268 20.5332L8.1333 20.3715C7.89559 20.2754 7.73688 20.1473 7.65569 19.9878C7.56923 19.8006 7.5279 19.5959 7.53501 19.39C7.5342 19.2519 7.55417 19.1145 7.59425 18.9823C7.62986 18.8604 7.69037 18.7471 7.77198 18.6495C7.84963 18.5543 7.94823 18.478 8.06016 18.4267C8.19136 18.3682 8.33405 18.3396 8.47779 18.343C8.60663 18.3406 8.7345 18.3654 8.85301 18.4158C8.96189 18.4634 9.06105 18.5306 9.14557 18.6139C9.22407 18.6911 9.2864 18.783 9.32896 18.8844C9.37152 18.9857 9.39346 19.0945 9.39352 19.2044L9.4001 19.4789Z" fill="white"/>
<path d="M9.80968 22.1991V18.3787H10.3619V21.6552H11.451V22.1991H9.80968Z" fill="white"/>
<path d="M12.807 22.1991V18.3787H14.4461V18.8934H13.3607V20.0148H14.3115V20.5295H13.3607V21.6516H14.4497V22.1991H12.807Z" fill="white"/>
<path d="M14.7803 22.1991V18.3787H15.3084L16.14 20.681H16.151V18.3787H16.701V22.1991H16.1832L15.342 19.9026H15.3311V22.1991H14.7803Z" fill="white"/>
<path d="M18.9413 21.107V21.3429C18.9422 21.4582 18.9193 21.5724 18.8741 21.6785C18.83 21.783 18.7671 21.8786 18.6883 21.9603C18.6091 22.0428 18.5147 22.1093 18.4103 22.1562C18.3029 22.2049 18.1861 22.2297 18.068 22.229C17.9608 22.2284 17.8541 22.214 17.7506 22.186C17.6431 22.158 17.5431 22.1065 17.458 22.0353C17.3683 21.9593 17.2958 21.8653 17.2452 21.7594C17.1843 21.6235 17.1555 21.4755 17.1611 21.3269V19.2262C17.1601 19.1069 17.1822 18.9885 17.2262 18.8774C17.2674 18.773 17.3296 18.6781 17.409 18.5986C17.4899 18.5186 17.5862 18.4556 17.6921 18.4136C17.8083 18.3671 17.9326 18.3441 18.0578 18.3459C18.1748 18.3416 18.2914 18.3619 18.4 18.4054C18.5087 18.449 18.6069 18.5148 18.6883 18.5986C18.7687 18.6827 18.8318 18.7816 18.8741 18.8898C18.9196 19.0058 18.9424 19.1294 18.9413 19.2539V19.4687H18.3921V19.2866C18.3942 19.1857 18.3617 19.0871 18.2999 19.007C18.2714 18.9687 18.2339 18.9378 18.1907 18.9173C18.1475 18.8967 18.0998 18.887 18.052 18.8891C17.9159 18.8891 17.8252 18.9313 17.7799 19.015C17.7318 19.1146 17.7087 19.2243 17.7126 19.3347V21.2883C17.709 21.3863 17.7345 21.4833 17.7857 21.5671C17.8156 21.607 17.8554 21.6384 17.9012 21.6582C17.947 21.678 17.9972 21.6855 18.0468 21.68C18.0861 21.6794 18.125 21.673 18.1624 21.6611C18.2073 21.6489 18.2487 21.6262 18.283 21.5949C18.3174 21.5637 18.3437 21.5247 18.3599 21.4812C18.3829 21.4213 18.3939 21.3575 18.3921 21.2934V21.107H18.9413Z" fill="white"/>
<path d="M19.389 22.1991V18.3787H20.2732C20.9198 18.3787 21.2431 18.7524 21.2431 19.5C21.2488 19.6966 21.2132 19.8923 21.1385 20.0745C21.0624 20.2383 20.9338 20.3723 20.7728 20.4553L21.366 22.2028H20.7808L20.2688 20.5718H19.9404V22.1991H19.389ZM19.939 18.8934V20.0876H20.2513C20.3306 20.091 20.4097 20.0774 20.4831 20.0475C20.5383 20.0228 20.5853 19.9829 20.6185 19.9325C20.6494 19.8747 20.6695 19.8118 20.6777 19.7468C20.6991 19.5776 20.6991 19.4063 20.6777 19.2371C20.6688 19.1701 20.6466 19.1056 20.6126 19.0471C20.5448 18.9466 20.4156 18.8964 20.225 18.8964L19.939 18.8934Z" fill="white"/>
<path d="M22.1003 22.1991V20.5842L21.3462 18.3787H21.9314L22.3702 19.8968H22.3812L22.82 18.3787H23.4051L22.6496 20.5842V22.1991H22.1003Z" fill="white"/>
<path d="M23.6801 22.1991V18.3787H24.5044C24.6399 18.3763 24.7748 18.3962 24.9038 18.4376C25.0237 18.4803 25.1311 18.5522 25.2161 18.6466C25.3089 18.7462 25.3758 18.867 25.4106 18.9983C25.4511 19.1769 25.469 19.3599 25.464 19.5429C25.4661 19.6891 25.4564 19.8352 25.4348 19.9798C25.4149 20.0979 25.3719 20.211 25.3082 20.3126C25.2351 20.4345 25.1309 20.5349 25.0062 20.6038C24.8524 20.6797 24.6818 20.7156 24.5103 20.7079H24.2302V22.1991H23.6801ZM24.2302 18.8934V20.1924H24.4942C24.5829 20.1971 24.6715 20.1804 24.7524 20.1436C24.8107 20.1145 24.8581 20.0676 24.8877 20.0097C24.9184 19.9479 24.9358 19.8805 24.9389 19.8116C24.944 19.733 24.9469 19.6449 24.9469 19.548C24.9469 19.4512 24.9469 19.374 24.9411 19.2932C24.939 19.2201 24.9226 19.1481 24.8928 19.0813C24.8658 19.0223 24.8204 18.9736 24.7633 18.9422C24.6862 18.9054 24.6009 18.8886 24.5154 18.8934H24.2302Z" fill="white"/>
<path d="M26.2335 22.1991V18.8934H25.5972V18.3787H27.4199V18.8934H26.7835V22.1991H26.2335Z" fill="white"/>
<path d="M27.6794 22.1991V18.3787H28.2295V22.1991H27.6794Z" fill="white"/>
<path d="M28.7312 19.2801C28.7282 19.14 28.7557 19.0009 28.8117 18.8723C28.8629 18.7594 28.9377 18.6586 29.0311 18.5767C29.117 18.5019 29.2163 18.4439 29.3237 18.4056C29.485 18.3479 29.6587 18.3334 29.8275 18.3634C29.9963 18.3935 30.1542 18.467 30.2855 18.5767C30.3748 18.6602 30.4465 18.7607 30.4961 18.8723C30.5518 19.001 30.5792 19.14 30.5766 19.2801V21.2977C30.5802 21.4398 30.5528 21.5809 30.4961 21.7113C30.4465 21.8195 30.3748 21.9163 30.2855 21.9953C30.1979 22.0728 30.0964 22.1331 29.9863 22.1729C29.7725 22.2516 29.5375 22.2516 29.3237 22.1729C29.2153 22.1337 29.1158 22.0733 29.0311 21.9953C28.9378 21.9179 28.8629 21.8209 28.8117 21.7113C28.7547 21.581 28.7272 21.4398 28.7312 21.2977V19.2801ZM29.2805 21.2977C29.2761 21.3514 29.2838 21.4053 29.3029 21.4557C29.322 21.5061 29.3521 21.5516 29.391 21.589C29.4645 21.6497 29.5569 21.6829 29.6524 21.6829C29.7479 21.6829 29.8404 21.6497 29.9139 21.589C29.9528 21.5516 29.9829 21.5061 30.002 21.4557C30.0211 21.4053 30.0287 21.3514 30.0244 21.2977V19.2801C30.0287 19.2264 30.0211 19.1725 30.002 19.1221C29.9829 19.0717 29.9528 19.0262 29.9139 18.9888C29.8404 18.9281 29.7479 18.8949 29.6524 18.8949C29.5569 18.8949 29.4645 18.9281 29.391 18.9888C29.3521 19.0262 29.322 19.0717 29.3029 19.1221C29.2838 19.1725 29.2761 19.2264 29.2805 19.2801V21.2977Z" fill="white"/>
<path d="M31.0381 22.1991V18.3787H31.5662L32.3964 20.681H32.4073V18.3787H32.9573V22.1991H32.4395L31.5991 19.9026H31.5881V22.1991H31.0381Z" fill="white"/>
</g>
<defs>
<linearGradient id="paint0_linear" x1="43.3207" y1="-4.4969" x2="62.7532" y2="42.1269" gradientUnits="userSpaceOnUse">
<stop stop-color="#E4F801"/>
<stop offset="1" stop-color="#2B7901"/>
</linearGradient>
<clipPath id="clip0">
<rect width="63" height="31" fill="white"/>
</clipPath>
</defs>
</svg>
