<svg width="63" height="32" viewBox="0 0 63 32" fill="none" xmlns="http://www.w3.org/2000/svg">
<path d="M3.36735 11.0276L0 0.709717H1.43875L3.04877 5.79329C3.49068 7.18408 3.87434 8.44127 4.14839 9.64708H4.17922C4.47039 8.45497 4.89859 7.15325 5.35762 5.80699L7.10125 0.709717H8.52629L4.83693 11.0276H3.36735Z" fill="#1A1F71"/>
<path d="M9.23196 7.56769C9.26279 9.3901 10.4241 10.1369 11.7703 10.1369C12.4752 10.1599 13.1766 10.029 13.8257 9.75322L14.0552 10.7192C13.276 11.045 12.4364 11.2015 11.5922 11.1783C9.31075 11.1783 7.94736 9.67785 7.94736 7.44437C7.94736 5.21089 9.26622 3.45013 11.4209 3.45013C13.8394 3.45013 14.4868 5.57743 14.4868 6.93738C14.4832 7.14824 14.4671 7.35871 14.4389 7.56769H9.23196ZM13.1782 6.60168C13.1782 5.74528 12.8357 4.41272 11.3113 4.41272C9.94106 4.41272 9.35528 5.66991 9.25594 6.60168H13.1782Z" fill="#1A1F71"/>
<path d="M15.5385 5.92687C15.5385 5.05677 15.5213 4.30657 15.4768 3.61802H16.6552L16.6997 5.07047H16.7614C16.8881 4.61746 17.1555 4.21641 17.5249 3.92519C17.8943 3.63397 18.3467 3.46763 18.8168 3.45017C18.9449 3.44793 19.0728 3.4629 19.197 3.4947V4.7656C19.0464 4.73183 18.8923 4.71574 18.738 4.71764C17.7925 4.71764 17.1177 5.43701 16.9327 6.44756C16.8947 6.65559 16.8741 6.86642 16.871 7.07787V11.0276H15.5385V5.92687Z" fill="#1A1F71"/>
<path d="M21.4921 1.53529C21.4968 1.64775 21.4776 1.75993 21.4358 1.86446C21.3941 1.96898 21.3307 2.06349 21.2498 2.14178C21.1689 2.22007 21.0724 2.28037 20.9666 2.31871C20.8607 2.35706 20.748 2.37259 20.6357 2.36428C20.5274 2.36525 20.42 2.34434 20.3199 2.30281C20.2199 2.26127 20.1292 2.19996 20.0534 2.12256C19.9776 2.04515 19.9182 1.95324 19.8788 1.85233C19.8393 1.75142 19.8207 1.64358 19.8239 1.53529C19.8211 1.42385 19.8409 1.31301 19.8823 1.20949C19.9236 1.10598 19.9856 1.01195 20.0644 0.933126C20.1432 0.854305 20.2373 0.792338 20.3408 0.750988C20.4443 0.709637 20.5551 0.689769 20.6666 0.692591C20.7774 0.689126 20.8877 0.708688 20.9906 0.750039C21.0935 0.79139 21.1866 0.85363 21.2642 0.932828C21.3418 1.01203 21.4021 1.10646 21.4414 1.21016C21.4806 1.31385 21.4979 1.42456 21.4921 1.53529ZM19.9917 3.61804H21.3414V11.0242H19.9917V3.61804Z" fill="#1A1F71"/>
<path d="M23.0987 11.0276V4.64228H22.0711V3.6146H23.0987V3.27204C23.0987 2.24437 23.3283 1.28178 23.9551 0.685725C24.4466 0.231719 25.095 -0.0138914 25.7639 0.000607244C26.1566 -0.00121351 26.5461 0.0720365 26.9114 0.216418L26.7264 1.24409C26.4569 1.12559 26.1644 1.06826 25.87 1.07624C24.7225 1.07624 24.4313 2.10392 24.4313 3.22066V3.61803H26.2195V4.6457H24.4313V11.031L23.0987 11.0276Z" fill="#1A1F71"/>
<path d="M29.049 1.53529C29.0354 1.74727 28.9416 1.94613 28.7867 2.09145C28.6317 2.23677 28.4273 2.31765 28.2149 2.31765C28.0024 2.31765 27.798 2.23677 27.6431 2.09145C27.4881 1.94613 27.3943 1.74727 27.3807 1.53529C27.3779 1.42385 27.3978 1.31301 27.4391 1.20949C27.4805 1.10598 27.5425 1.01195 27.6213 0.933126C27.7001 0.854305 27.7941 0.792338 27.8976 0.750988C28.0012 0.709637 28.112 0.689769 28.2234 0.692591C28.3342 0.689126 28.4446 0.708688 28.5474 0.750039C28.6503 0.79139 28.7435 0.85363 28.8211 0.932828C28.8987 1.01203 28.959 1.10646 28.9982 1.21016C29.0374 1.31385 29.0547 1.42456 29.049 1.53529ZM27.5486 3.61804H28.8948V11.0242H27.5486V3.61804Z" fill="#1A1F71"/>
<path d="M31.2688 7.56769C31.2996 9.3901 32.4609 10.1369 33.8106 10.1369C34.5154 10.1596 35.2167 10.0287 35.8659 9.75322L36.0954 10.7192C35.3149 11.0445 34.4743 11.2009 33.629 11.1783C31.3476 11.1783 29.9876 9.67785 29.9876 7.44437C29.9876 5.21089 31.303 3.45013 33.4577 3.45013C35.8796 3.45013 36.5202 5.57743 36.5202 6.93738C36.5191 7.14823 36.5042 7.35878 36.4757 7.56769H31.2688ZM35.2151 6.60167C35.2151 5.74528 34.8725 4.41272 33.3481 4.41272C31.9779 4.41272 31.3921 5.66991 31.2928 6.60167H35.2151Z" fill="#1A1F71"/>
<path d="M43.9743 0.158203V9.11269C43.9743 9.77041 43.9743 10.5206 44.0325 11.0276H42.8267L42.7651 9.73958H42.7308C42.489 10.1945 42.124 10.5721 41.6774 10.829C41.2309 11.0859 40.7209 11.2117 40.2061 11.192C38.4146 11.192 37.0409 9.67791 37.0409 7.42388C37.0409 4.96088 38.555 3.44677 40.3603 3.44677C41.4907 3.44677 42.2581 3.98116 42.5938 4.57721H42.6246V0.158203H43.9743ZM42.6246 6.63257C42.6271 6.44141 42.6076 6.2506 42.5664 6.06392C42.4698 5.62047 42.2238 5.22366 41.8696 4.93992C41.5154 4.65618 41.0745 4.50273 40.6206 4.50527C39.2264 4.50527 38.4009 5.72821 38.4009 7.36907C38.4009 8.86947 39.1339 10.1095 40.5932 10.1095C41.0561 10.1071 41.5042 9.94645 41.8631 9.6542C42.2221 9.36195 42.4702 8.9557 42.5664 8.50294C42.6093 8.3119 42.6289 8.11635 42.6246 7.92059V6.63257Z" fill="#1A1F71"/>
<path d="M48.9619 11.0276C48.9928 10.5206 49.0202 9.7704 49.0202 9.11269V0.158203H50.3527V4.81015H50.387C50.6398 4.37051 51.0097 4.00966 51.4554 3.76774C51.9011 3.52583 52.4052 3.41234 52.9116 3.43991C54.7478 3.43991 56.0461 4.97115 56.0324 7.20806C56.0324 9.85604 54.3641 11.1715 52.713 11.1715C52.2098 11.2012 51.7087 11.086 51.2691 10.8394C50.8295 10.5929 50.4699 10.2255 50.2328 9.78068H50.1883L50.1232 11.007L48.9619 11.0276ZM50.3527 8.05761C50.3585 8.22262 50.3803 8.38667 50.4178 8.54747C50.5291 8.99814 50.7884 9.39842 51.1542 9.68414C51.5201 9.96987 51.9713 10.1245 52.4355 10.1232C53.8434 10.1232 54.6861 8.97567 54.6861 7.27658C54.6861 5.7933 53.9188 4.53611 52.4834 4.53611C52.0062 4.54432 51.5453 4.71101 51.1732 5.00992C50.8011 5.30884 50.539 5.72301 50.4281 6.18724C50.3824 6.36777 50.3559 6.55265 50.3493 6.73876L50.3527 8.05761Z" fill="#1A1F71"/>
<path d="M57.5054 3.61804L59.1257 7.99594C59.2935 8.4858 59.4682 9.06815 59.5984 9.51005H59.6292C59.7697 9.06815 59.9204 8.48238 60.1054 7.96512L61.575 3.61804H63L60.9755 8.89687C60.0129 11.4387 59.3552 12.7404 58.4371 13.5351C57.9718 13.9645 57.4028 14.2655 56.786 14.4086L56.4434 13.2748C56.8748 13.1333 57.275 12.91 57.6218 12.6171C58.1106 12.2113 58.4988 11.6977 58.7557 11.1167C58.8105 11.0167 58.8465 10.9076 58.8619 10.7946C58.8488 10.6764 58.8176 10.5609 58.7694 10.4521L56.0289 3.62489L57.5054 3.61804Z" fill="#1A1F71"/>
<path d="M22.3417 16.0803L18.2584 26.4051L16.6073 17.6287C16.5409 17.1969 16.3219 16.8032 15.99 16.5191C15.6581 16.235 15.2354 16.0794 14.7985 16.0803H8.11179L8.02273 16.5188C9.35976 16.7882 10.6586 17.2208 11.8902 17.8068C12.4691 18.1254 12.6336 18.3994 12.8186 19.1428L15.953 31.2488H20.1014L26.4592 16.0803H22.3417Z" fill="#1A1F71"/>
<path d="M28.1481 16.0803L24.904 31.2488H28.8298L32.0669 16.0803H28.1481Z" fill="#1A1F71"/>
<path d="M37.2293 20.2835C37.2293 19.7422 37.7603 19.1633 38.8941 19.0092C40.2213 18.8885 41.5566 19.1251 42.7616 19.6943L43.4467 16.4777C42.2743 16.0329 41.0319 15.8009 39.7779 15.7925C35.8967 15.7925 33.1734 17.8479 33.146 20.8145C33.1254 22.9931 35.0952 24.2126 36.5716 24.9252C38.048 25.6377 38.6269 26.1413 38.603 26.8127C38.603 27.8403 37.3835 28.2754 36.2599 28.2925C34.8568 28.3226 33.4692 27.9949 32.2279 27.3402L31.5188 30.663C32.9103 31.2024 34.3907 31.4755 35.883 31.468C39.9938 31.468 42.6965 29.4298 42.7102 26.2783C42.7274 22.2703 37.1779 22.0511 37.2293 20.2629" fill="#1A1F71"/>
<path d="M48.5783 25.8775L50.6645 20.1808L51.8394 25.8775H48.5783ZM50.0684 16.0803C49.7103 16.0772 49.3595 16.1816 49.0615 16.3801C48.7634 16.5786 48.5319 16.862 48.3967 17.1937L42.5116 31.2386H46.6223L47.441 28.9743H52.4732L52.9459 31.2386H56.5839L53.4186 16.0701L50.0684 16.0803Z" fill="#1A1F71"/>
</svg>
